<?xml version="1.0" encoding="UTF-8"?>
<svg width="512pt" height="512pt" version="1.1" viewBox="0 0 512 512" xmlns="http://www.w3.org/2000/svg">
 <path d="m154.43 225.56c-0.0625-1.3906 0.30859-2.7656 1.0625-3.9336 1.375-1.6172 2.875-3.1289 4.4805-4.5156 2.1328-2.6055 3.2773-5.8828 3.2266-9.2539-0.64844-2.8594 0.1875-5.8516 2.2227-7.9648-2.8711-2.1914-4.1289-7.5781-3.2227-8.0273 3.4297-0.90625 7.0859 0.019531 9.6719 2.4492 2.6953-1.7773 5.875-2.668 9.1016-2.5547 3.2227 0.11719 6.332 1.2344 8.8906 3.1992 2.7266-2.8555 6.8125-3.9609 10.609-2.8672 0.17188 2.0742-0.375 4.1484-1.5469 5.8672 2.125-1.332 4.8555-1.1875 6.8359 0.35547 5.0117-1.0508 10.234-0.32031 14.766 2.0625 11.887 5.3359 24.629 8.5117 37.629 9.3828 10.84 1.0469 21.766 0.875 32.566-0.51562 10.867-1.3555 21.637-3.2227 32.535-4.3867 6.8047-0.74219 13.605-0.28906 19.348 4.6094l-0.003906 0.003906c3.8125 3.6094 6.5195 8.2266 7.8047 13.316 3.5664 13.535 4.8008 27.582 3.6445 41.531-0.28906 6.7695-1.1914 13.543 2.2266 19.895h-0.003906c0.375 0.80859 0.64844 1.668 0.80859 2.5469 0.97266 3.0664 1.0234 6.3555 0.15625 9.4531-0.87109 3.1016-2.6289 5.875-5.0586 7.9883 1.5977-3.625 1.5977-7.7539 0-11.379-0.88672-2.3711-1.418-4.8594-1.582-7.3867 0-7.2539 0.32422-14.508 0.67578-21.766l0.003906 0.003906c0.98438-10.188 0.38672-20.469-1.7734-30.473-0.96875-3.6094-2.418-7.0938-3.6445-10.641l-0.61328 0.22656c2.1953 9.2461 2.9648 18.77 2.2891 28.246-1.1914 5.8125-2.6875 11.562-4.4805 17.219-1.3594 4.0117-0.66016 8.4336 1.8711 11.832 0.47266 0.64062 0.66797 1.4414 0.54687 2.2266-2.2656 8.9727-2.6055 18.324-1 27.438 0.11719 0.91797-0.20312 1.8398-0.87109 2.4844-1.9805 0.73828-3.0898 2.8477-2.5781 4.8984v3.2227h-14.414c0.41797-0.71094 1.0312-1.6758 1.3555-2.3867v0.003906c2.4453-4.668 4.6523-9.457 6.6094-14.348 4.2578-12.09 2.1289-22.57-8.3828-29.02-7.5469-4.293-14.133-10.086-19.348-17.023-0.19531 0-1.1289 0.41797-1.3203 0.58203l7.6758 10.48-0.003906-0.003906c-10.398 3.5117-19.98 9.082-28.18 16.379-0.64453 0.54688-1.4844 0.28906-1.4492-0.16016-0.38672-5.0312-4.2578-6.6758-8.5781-7.8047-2.8359-0.89453-5.7227-1.625-8.6406-2.1914-6.0312-0.87109-12.125-1.4492-18.219-2.0625-0.61719-0.21094-1.2969-0.13281-1.8516 0.21094s-0.92969 0.91406-1.0195 1.5625c-2 9.6719-4.2891 19.121-3 29.02h0.003906c0.73438 2.0742-0.035156 4.3906-1.8711 5.6094-0.40625 0.48438-0.61328 1.1094-0.58203 1.7422-0.19531 3-0.35547 6.2539-0.48438 9.2852h-12.348c2.1289-5.5469 4.6094-11.125 6.4492-16.734 2.3008-5.5469 1.6719-11.879-1.6758-16.863-3.8047-5.1602-7.4805-10.383-11.352-15.766v-0.003907c0.55078 3.043 1.6445 5.957 3.2227 8.6094 0.61328 1.1914 1.6445 2.4844 2.6445 4.5156l0.22656 0.41797c0.23828 0.42188 0.30859 0.91797 0.19531 1.3867-1.5469 5.5117-2.0195 11.27-1.3867 16.961 0.34766 1.5508-0.375 3.1445-1.7734 3.9023-0.66016 0.55859-1.0664 1.3594-1.1289 2.2227-0.32422 2.9648-0.48438 6.2539-0.71094 9.3828h-12.445c2.1602-4.1289 4.7734-8.6719 6.707-12.898v0.003907c1.7539-3.3008 2.5547-7.0195 2.3242-10.75-0.23438-3.7266-1.4961-7.3164-3.6445-10.371-0.87109-1.2578-7.9961-12.219-11.703-18.477-1.1602-1.9336-2.2891-3.9023-3.418-5.8672-2.9648-5.2227-5.7383-8.9297-8.7695-14.121l-0.003907-0.003906c-2.5234-3.2109-5.8633-5.6836-9.6719-7.1562-3.0312-1.5781-2.9023-6.4492-10.832-5.5156-3.2617 0.55078-15.934 0.80859-15.801-7.543z"/>
 <path d="m307.17 278.57c-0.53906-1.5977-0.65234-3.3086-0.32422-4.9648 1.4258-1.1562 3.125-1.9219 4.9336-2.2266 0.77344-0.39844 1.6641-0.51172 2.5156-0.32031 2.3203 1.2891 4.5156 2.8359 6.9961 4.4492-7.1523 8.543-11.367 19.156-12.027 30.277-0.28906 0.73438-0.73828 1.3984-1.3203 1.9336-0.91016 1.0469-1.6992 2.1953-2.3555 3.418-0.39844 1.3984-0.64844 2.8359-0.74219 4.2891h-12.445c3.2227-4.9023 6.4492-10.156 9.3828-15.285 3.957-6.4688 5.8359-14 5.3867-21.57z"/>
</svg>
