<?xml version="1.0" encoding="UTF-8"?>
<svg width="100pt" height="100pt" version="1.1" viewBox="0 0 100 100" xmlns="http://www.w3.org/2000/svg">
 <path d="m50 0c-6.5664 0-13.066 1.293-19.133 3.8047-6.0664 2.5156-11.578 6.1953-16.223 10.84s-8.3242 10.156-10.84 16.223c-2.5117 6.0664-3.8047 12.566-3.8047 19.133 0 13.262 5.2695 25.98 14.645 35.355 9.3789 9.375 22.094 14.645 35.355 14.645s25.977-5.2695 35.355-14.645c9.375-9.3789 14.645-22.094 14.645-35.355s-5.2695-25.977-14.645-35.355c-9.375-9.375-22.094-14.645-35.355-14.645zm0 5.6484c5.7617 0 11.465 1.1445 16.785 3.375 5.3203 2.2305 10.156 5.4961 14.23 9.6133 4.0742 4.1211 7.3047 9.0078 9.5078 14.391 2.2031 5.3789 3.3398 11.148 3.3398 16.973 0 11.762-4.6211 23.043-12.848 31.363-8.2266 8.3164-19.383 12.988-31.016 12.988-5.7617 0-11.465-1.1445-16.785-3.375-5.3203-2.2266-10.156-5.4961-14.23-9.6133-4.0742-4.1211-7.3047-9.0078-9.5078-14.391-2.2031-5.3789-3.3398-11.148-3.3398-16.973s1.1367-11.594 3.3398-16.973c2.2031-5.3828 5.4336-10.27 9.5078-14.391 4.0742-4.1172 8.9102-7.3867 14.23-9.6133 5.3203-2.2305 11.023-3.375 16.785-3.375z"/>
 <path d="m40.996 78.34h18.012c0.82422 0 1.6055-0.41016 2.0703-1.0898 1.2773-1.8438 2.3867-4.043 3.2695-6.4688h-28.695c0.88281 2.4258 1.9883 4.6211 3.2695 6.4688 0.46484 0.67969 1.2461 1.0898 2.0742 1.0898z"/>
 <path d="m34.684 67.707v0.007813c0.007812 0.023437 0.011718 0.058594 0.019531 0.082031s0.011719 0.050781 0.019531 0.082031c0.039063 0.13281 0.070313 0.25781 0.11328 0.38281h30.328c0.042969-0.125 0.074219-0.25 0.11328-0.38281 0.007812-0.03125 0.011718-0.058594 0.019531-0.082031s0.011719-0.058594 0.019531-0.082031v-0.007813c1.0312-3.7656 1.5508-7.7852 1.5508-11.973 0-7.7266-1.793-14.965-4.9609-20.223l-23.809 0.003906c-3.168 5.2578-4.9609 12.496-4.9609 20.223 0 4.1875 0.51562 8.2031 1.5469 11.969zm3.4883-11.969c0-1.8281 0.11328-3.6406 0.33984-5.3906 0.39062 0 0.78125 0.089844 1.1406 0.26953l4.6094 2.3047 4.6094-2.3047c0.71094-0.35938 1.543-0.35938 2.2539 0l4.6094 2.3047 4.6094-2.3047c0.35938-0.18359 0.75-0.26953 1.1406-0.26953 0.22656 1.75 0.33984 3.5625 0.33984 5.3906l0.003906 0.125-0.35156-0.17578-4.6133 2.3047c-0.35156 0.17578-0.74219 0.26562-1.1289 0.26562-0.38281 0-0.76953-0.089843-1.1289-0.26562l-4.6055-2.3047-4.6094 2.3047c-0.71094 0.35156-1.543 0.35156-2.2539 0l-4.6094-2.3047-0.35547 0.17578z"/>
 <path d="m62.766 32.996 0.76172-1.5234v-0.007812c1.0586-2.1133 0.9375-4.582-0.30078-6.5938-1.25-2.0078-3.4023-3.2109-5.7695-3.2109h-14.914c-2.3672 0-4.5195 1.2031-5.7695 3.2109-1.2422 2.0078-1.3594 4.4766-0.30078 6.6016l0.76172 1.5234z"/>
</svg>
