<?xml version="1.0" encoding="UTF-8"?>
<svg width="100pt" height="100pt" version="1.1" viewBox="0 0 100 100" xmlns="http://www.w3.org/2000/svg">
 <path d="M 50,50 m -45,0 a 45,45 0 1,0 90,0 a 45,45 0 1,0 -90,0" fill="white" stroke="white" />
 <path fill="#174460" d="m22.23 51.445c2.6328 0.28906 7.7656 0.39063 12.48-2.1758 0.32031-0.18359 0.70703-0.21094 1.0586-0.082031 1.8398 0.69922 7.9219 2.9414 11.578 3.4102l1.2539 2.7852s-1.6055 3.0508-1.7305 5.7695c-0.003906 0.09375 0.03125 0.1875 0.10156 0.25391 0.070313 0.0625 0.16797 0.09375 0.26172 0.082031 0.50781-0.082031 1.0273 0.011719 1.4766 0.26172 0.38281 0.24219 0.79687 0.42578 1.2344 0.54688 0.042969 0.011719 0.082032 0.011719 0.12109 0 0.43359-0.12109 0.85156-0.30469 1.2344-0.54688 0.44922-0.25 0.96875-0.34375 1.4766-0.26172 0.09375 0.011719 0.1875-0.015625 0.26172-0.082031 0.070313-0.066406 0.10547-0.16016 0.10156-0.25391-0.12891-2.7227-1.7305-5.7695-1.7305-5.7695l1.2539-2.7852c3.6562-0.46875 9.7383-2.707 11.578-3.4102 0.34766-0.12891 0.73437-0.10156 1.0586 0.082031 4.7148 2.5664 9.8477 2.4648 12.48 2.1758 0.27344-0.03125 0.49609-0.23047 0.55469-0.5 0.058593-0.26953-0.0625-0.54297-0.29688-0.6875-2.9141-1.7656-9.2773-5.7305-12.559-8.6875h-0.003907c-0.38672-0.34766-0.95312-0.41797-1.4102-0.16797-2.2773 1.2188-9 4.4805-12.148 2.3906 0 0-0.089844-3.9688-1.168-4.4883l-0.73828-1.6016-0.73828 1.6016c-1.0781 0.52344-1.168 4.4883-1.168 4.4883-3.1523 2.0898-9.8711-1.1719-12.148-2.3906-0.46094-0.25-1.0273-0.17969-1.4102 0.16797-3.2852 2.9531-9.6445 6.9219-12.559 8.6875h-0.003906c-0.23438 0.14453-0.35547 0.41797-0.29688 0.6875 0.058594 0.26953 0.28125 0.46875 0.55469 0.5z"/>
</svg>
