<?xml version="1.0" encoding="UTF-8"?>
<svg width="100pt" height="100pt" version="1.1" viewBox="0 0 100 100" xmlns="http://www.w3.org/2000/svg">
<path d="M 50,50 m -45,0 a 45,45 0 1,0 90,0 a 45,45 0 1,0 -90,0" fill="white" stroke="white" />
 <path fill="#174460" d="m63.926 65.996c-0.26562-2.0547-0.81641-4.7617-1.7656-8.2148-3.2227-11.691-12.625-21.426-12.625-21.426 0.085938 0.17188 6.4141 16.008 7.9258 20.809 0.72266 2.0742 1.6133 5.125 2.2617 7.8281 0.3125 0.085937 0.65234 0.1875 1.0234 0.30469 1.3086 0.41797 2.2656 0.64844 3.1797 0.69922z"/>
 <path fill="#174460" d="m70.434 45.902c-1.0078 3.7344-1.8398 7.6484-1.8398 7.6484s-0.71094-3.1445-2.3125-5.9297c-4.2852-9.0977-10.625-13.637-14.043-15.73-0.32031-0.19531-0.56641-0.1875-0.73828 0.019531-0.27344 0.33984-0.17578 0.44531 1.0586 1.7578 2.3438 2.4883 7.7031 8.7383 10.578 15.434 2.3906 5.5703 2.1797 12.57 1.6719 16.883 0.87109-0.066406 1.793-0.29297 3.0234-0.6875 1.168-0.375 2.0195-0.59375 2.8125-0.66016 1.3203-8.6172 3.9609-23.996 7.2891-33.801l0.070312-0.13281s-4.25 4.0508-7.5703 15.199z"/>
 <path fill="#174460" d="m74.508 68.398c-2.8594-0.91406-3.8164-0.91406-6.6719 0-2.9414 0.94531-4.1094 0.94531-7.0898 0-3.0078-0.94531-3.8594-0.88281-6.6758 0-2.9922 0.94531-4.1523 0.94531-7.0898 0-2.8633-0.91406-3.8164-0.91406-6.6758 0-2.9414 0.94531-4.1055 0.94531-7.0898 0-1.4531-0.45703-2.5859-0.69141-3.3711-0.69141-0.73828 0-1.8516 0.23438-3.3047 0.69141-1.3555 0.42969-2.4375 0.64062-3.2852 0.67969v4.2578l0.011719 0.16797c0.5-0.26562 1.6328-0.5 3.0898-0.95703 3.0625-0.96875 4.1523-0.91797 7.0508 0 2.8242 0.88672 3.6836 0.94922 6.6797 0 2.9766-0.94531 4.1289-0.94531 7.125 0 2.9922 0.94531 3.8516 0.88672 6.6797 0 2.8945-0.92578 3.9766-0.97266 7.0508 0 2.8125 0.88672 3.668 0.94531 6.6797 0 2.9805-0.94531 4.1484-0.94531 7.0898 0 1.2617 0.40625 2.2852 0.63281 3.0547 0.67969l0.023437-4.1484c-0.65625 0.089844-1.8125-0.20312-3.2812-0.67969z"/>
 <path fill="#174460" d="m74.508 75.617c-2.8594-0.91406-3.8164-0.91406-6.6719 0-2.9414 0.94531-4.1094 0.94531-7.0898 0-3.0078-0.94531-3.8594-0.88281-6.6758 0-2.9922 0.94531-4.1523 0.94531-7.0898 0-2.8633-0.91406-3.8164-0.91406-6.6758 0-2.9414 0.94531-4.1055 0.94531-7.0898 0-1.4531-0.45703-2.5859-0.69141-3.3711-0.69141-0.73828 0-1.8516 0.23438-3.3047 0.69141-1.3555 0.42969-2.4375 0.64062-3.2852 0.67969v4.2578l0.011719 0.16797c0.5-0.26562 1.6328-0.5 3.0898-0.95703 3.0625-0.96875 4.1523-0.91797 7.0508 0 2.8242 0.88672 3.6836 0.94922 6.6797 0 2.9766-0.94531 4.1289-0.94531 7.125 0 2.9922 0.94531 3.8516 0.88672 6.6797 0 2.8945-0.92578 3.9766-0.97266 7.0508 0 2.8125 0.88672 3.668 0.94531 6.6797 0 2.9805-0.94531 4.1484-0.94531 7.0898 0 1.2617 0.40625 2.2852 0.63281 3.0547 0.67969l0.023437-4.1484c-0.65625 0.089844-1.8125-0.20312-3.2812-0.67969z"/>
 <path fill="#174460" d="m35.719 49.02 0.76953 1.2148c0.38281 0.60156 3.8125 6.0703 7.8164 14.414 0.75391 0.082031 1.5703 0.29687 2.6719 0.64844 2.9375 0.94531 4.0977 0.94531 7.0898 0 1.1836-0.37109 2.0195-0.59375 2.8125-0.66406-0.14844-0.66406-0.32031-1.3359-0.52734-2-1.1914-3.8398-8.3008-17.969-8.3711-18.109l-0.65234-1.293 0.35547 1.4062c0.14844 0.59375 3.2227 12.746 4.3438 16.859-1.4648-2.4961-4.9453-8.3477-5.168-8.7188-0.13672-0.48047-2.5781-9.3047-2.1211-15.586 0.35156-9.8203 2.9297-17.078 2.957-17.148l0.26953-0.75-0.53906 0.58984c-0.0625 0.070313-6.3203 7.1055-5.4648 22.598 0.074218 1.8789 0.26953 3.8828 0.57812 5.832-1.9688-2.332-5.1875-4.5312-5.2227-4.5547l-0.79688-0.54297 0.57812 0.76953c0.039063 0.050781 3.9023 5.1875 6.4297 9.4492 0.30859 1.3945 0.91406 3.3789 1.4453 5.1328 0.21094 0.69531 0.41797 1.3711 0.59375 1.9766-3.4453-5.1055-8.7773-10.453-8.832-10.508z"/>
 <path fill="#174460" d="m37.777 65.934c0.73047-0.10156 1.5234-0.3125 2.5234-0.63281 0.25781-0.082031 0.49609-0.15234 0.72266-0.22266-2.1367-4.2305-4.7734-10.117-5.7773-15.137-1.8203-7.7852 0.80469-13.273 0.82812-13.328 0 0-7 9.2148-0.39062 25.008 0.73047 1.7422 1.4375 3.1602 2.0938 4.3125z"/>
 <path fill="#174460" d="m31.039 64.738c0.61719 0.11328 1.3398 0.30078 2.1719 0.5625 0.92187 0.29297 1.668 0.49219 2.3516 0.60547-0.007812-0.027344-0.015625-0.050781-0.023438-0.078125-2.7266-8.668-12.34-19.871-12.438-19.984l-0.92969-1.0781 0.66797 1.2539c0.035156 0.066407 3.6641 7.0195 7.7695 17.582 0.14844 0.37891 0.28906 0.75781 0.42969 1.1367z"/>

</svg>
