<?xml version="1.0" encoding="UTF-8"?>
<svg width="100pt" height="100pt" version="1.1" viewBox="0 0 100 100" xmlns="http://www.w3.org/2000/svg">
<path d="M 50,50 m -45,0 a 45,45 0 1,0 90,0 a 45,45 0 1,0 -90,0" fill="white" stroke="white" />
<path fill="#174460" d="m27.434 43.309c-0.56641-0.84375-0.39453-1.9844 0.39453-2.625l20.992-15.742c0.69922-0.52344 1.6641-0.52344 2.3633 0l20.992 15.742c0.78906 0.64062 0.96094 1.7812 0.39453 2.625-0.36719 0.5-0.95312 0.79297-1.5742 0.78906-0.42578-0.003906-0.83984-0.14062-1.1797-0.39453l-2.0977-1.5742v10.496c-4.8789-1.5391-10.191-0.89844-14.562 1.7578-1.9414 1.1523-4.3555 1.1523-6.2969 0-4.3789-2.6484-9.6797-3.2852-14.562-1.7578v-10.496l-2.0977 1.5742c-0.41797 0.3125-0.94141 0.44922-1.457 0.375-0.51953-0.074219-0.98438-0.34766-1.2969-0.76562zm43.348 25.715c-2.2344-1.7031-4.9375-2.6953-7.7461-2.8398-2.8086-0.14453-5.5977 0.5625-7.9961 2.0312-1.5586 0.94141-3.3477 1.4336-5.168 1.4336-1.8242 0-3.6094-0.49609-5.1719-1.4336-2.3867-1.4375-5.1484-2.1289-7.9297-1.9844s-5.457 1.1211-7.6797 2.7969l-3.8828 3.0195c-0.86719 0.65234-1.0469 1.8867-0.39453 2.7539 0.65234 0.86719 1.8867 1.0469 2.7539 0.39453l4.0664-3.0195c1.6055-1.1992 3.5273-1.8984 5.5273-2 2-0.10156 3.9883 0.39453 5.7031 1.4258 2.168 1.3047 4.6562 1.9961 7.1875 1.9961 2.5352 0 5.0195-0.69141 7.1914-1.9961 1.7148-1.0391 3.7031-1.5391 5.7031-1.4375 2 0.10156 3.9258 0.80469 5.5234 2.0117l4.0156 3.0195c0.34375 0.25391 0.75391 0.39063 1.1797 0.39453 0.62109 0.003906 1.207-0.28906 1.5742-0.78906 0.65234-0.86719 0.47656-2.1016-0.39453-2.7539zm-43.219-4.3281 4.0664-3.0156c1.6055-1.2031 3.5273-1.8984 5.5273-2.0039 2-0.10156 3.9883 0.39453 5.7031 1.4258 2.168 1.3047 4.6562 1.9961 7.1875 1.9961 2.5352 0 5.0195-0.69141 7.1914-1.9961 1.7148-1.0391 3.7031-1.5391 5.7031-1.4336 2 0.10156 3.9258 0.80469 5.5234 2.0117l4.0156 3.0195v-0.003907c0.34375 0.25391 0.75391 0.39453 1.1797 0.39453 0.62109 0.003906 1.207-0.28906 1.5742-0.78906 0.65234-0.86719 0.47656-2.1016-0.39453-2.7539l-4.0156-3.0195v0.003906c-2.2344-1.707-4.9336-2.6992-7.7461-2.8438-2.8086-0.14453-5.5977 0.5625-7.9961 2.0312-1.5586 0.94141-3.3477 1.4375-5.168 1.4375-1.8203 0-3.6094-0.49609-5.168-1.4375-2.3867-1.4375-5.1484-2.1289-7.9297-1.9844s-5.457 1.1172-7.6836 2.7969l-3.9375 3.0156c-0.86719 0.65234-1.0469 1.8867-0.39453 2.7539 0.65234 0.87109 1.8867 1.0469 2.7539 0.39453z"/> 

</svg>
